<!DOCTYPE svg PUBLIC "-//W3C//DTD SVG 1.1//EN" "http://www.w3.org/Graphics/SVG/1.1/DTD/svg11.dtd">
<!-- Uploaded to: SVG Repo, www.svgrepo.com, Transformed by: SVG Repo Mixer Tools -->
<svg fill="#000000" width="800px" height="800px" viewBox="0 0 24 24" id="music-file-2" data-name="Flat Color" xmlns="http://www.w3.org/2000/svg" class="icon flat-color">
<g id="SVGRepo_bgCarrier" stroke-width="0"/>
<g id="SVGRepo_tracerCarrier" stroke-linecap="round" stroke-linejoin="round"/>
<g id="SVGRepo_iconCarrier">
<path id="primary" d="M12,13a2,2,0,0,1,2-2h2a1,1,0,0,0,1-1V4a2,2,0,0,0-2-2H9a1,1,0,0,0-.71.29l-6,6A1,1,0,0,0,2,9v9a2,2,0,0,0,2,2h7a1,1,0,0,0,1-1Z" style="fill: #e0e0e0;"/>
<path id="secondary" d="M22,16a1,1,0,0,1-2,0,2,2,0,0,0-1-1.78V19a3,3,0,1,1-2-2.82V13a1,1,0,0,1,1-1A3.91,3.91,0,0,1,22,16ZM8,9A1,1,0,0,0,9,8V2a1,1,0,0,0-.71.28l-6,6A1,1,0,0,0,2,9Z" style="fill: #2ca9bc;"/>
</g>
</svg>